<svg width="111" height="69" viewBox="0 0 111 69" fill="none" xmlns="http://www.w3.org/2000/svg">
<path d="M0.57196 0H81C97.5685 0 111 13.4315 111 30V38.5596C111 55.1281 97.5685 68.5596 81 68.5596H0.57196V0Z" fill="#5AFF31" fill-opacity="0.6"/>
<path d="M23 25H49.5C57.232 25 63.5 31.268 63.5 39V52.3545" stroke="white" stroke-width="4"/>
<path d="M61.7148 56.0915C62.4959 56.8725 63.7622 56.8725 64.5432 56.0915L77.2712 43.3635C78.0522 42.5825 78.0522 41.3162 77.2712 40.5351C76.4901 39.7541 75.2238 39.7541 74.4427 40.5351L63.129 51.8488L51.8153 40.5351C51.0343 39.7541 49.7679 39.7541 48.9869 40.5351C48.2058 41.3162 48.2058 42.5825 48.9869 43.3635L61.7148 56.0915ZM61.129 52.9901V54.6773H65.129V52.9901H61.129Z" fill="white"/>
</svg>
