<svg width="37" height="38" viewBox="0 0 37 38" fill="none" xmlns="http://www.w3.org/2000/svg">
<path d="M29.809 4.84545V1.42483C29.809 0.637843 29.1746 0 28.3921 0H8.60756C7.82503 0 7.19065 0.637843 7.19065 1.42483V4.84545H0V6.42876H3.30056L6.88181 35.4936C7.05818 36.925 8.26762 38 9.7018 38H27.2978C28.7321 38 29.9414 36.925 30.1179 35.4936L33.6992 6.42876H37V4.84545H29.809ZM11.7438 32.9281L10.181 12.4181L11.7507 12.2975L13.3136 32.8074L11.7438 32.9281ZM19.287 32.8678H17.7127V12.3578H19.287V32.8678V32.8678ZM25.2558 32.9281L23.686 32.8074L25.2489 12.2975L26.8186 12.4181L25.2558 32.9281Z" fill="url(#paint0_linear_114_27)"/>
<path d="M29.309 4.84545V5.34545H29.809H36.5V5.92876H33.6992H33.257L33.203 6.36761L29.6216 35.4324C29.4758 36.6155 28.4774 37.5 27.2978 37.5H9.7018C8.52234 37.5 7.52382 36.6155 7.37806 35.4324L3.7968 6.36761L3.74273 5.92876H3.30056H0.5V5.34545H7.19065H7.69065V4.84545V1.42483C7.69065 0.911373 8.10378 0.5 8.60756 0.5H28.3921C28.8959 0.5 29.309 0.911373 29.309 1.42483V4.84545ZM11.2453 32.966L11.2833 33.4649L11.7822 33.4266L13.3519 33.3059L13.8501 33.2676L13.8122 32.7694L12.2493 12.2595L12.2112 11.7606L11.7124 11.799L10.1427 11.9196L9.64449 11.9579L9.68246 12.4561L11.2453 32.966ZM17.2127 32.8678V33.3678H17.7127H19.287V32.8678H19.787V12.3578V11.8578H19.287H17.7127H17.2127V12.3578V32.8678ZM25.2174 33.4266L25.7163 33.4649L25.7543 32.966L27.3171 12.4561L27.3551 11.9579L26.8569 11.9196L25.2872 11.799L24.7884 11.7606L24.7503 12.2595L23.1874 32.7694L23.1495 33.2676L23.6477 33.3059L25.2174 33.4266Z" stroke="#9F4CD6" stroke-opacity="0.34"/>
<defs>
<linearGradient id="paint0_linear_114_27" x1="3.54255" y1="10.6875" x2="35.5212" y2="29.9243" gradientUnits="userSpaceOnUse">
<stop stop-color="#C50DE5"/>
<stop offset="1" stop-color="#13BEF3"/>
</linearGradient>
</defs>
</svg>
